<?xml version="1.0" encoding="UTF-8" standalone="no"?>
<!-- Created with Inkscape (http://www.inkscape.org/) -->

<svg
   width="64pt"
   height="64pt"
   viewBox="0 0 22.577778 22.577778"
   version="1.1"
   id="svg831"
   inkscape:version="1.1.1 (3bf5ae0d25, 2021-09-20)"
   sodipodi:docname="Export - Unblash - 64px.svg"
   inkscape:export-filename="C:\Users\User\Desktop\Done Januari 2k22\EX\13 - Workspace.png"
   inkscape:export-xdpi="576"
   inkscape:export-ydpi="576"
   xmlns:inkscape="http://www.inkscape.org/namespaces/inkscape"
   xmlns:sodipodi="http://sodipodi.sourceforge.net/DTD/sodipodi-0.dtd"
   xmlns="http://www.w3.org/2000/svg"
   xmlns:svg="http://www.w3.org/2000/svg"
   xmlns:rdf="http://www.w3.org/1999/02/22-rdf-syntax-ns#"
   xmlns:cc="http://creativecommons.org/ns#"
   xmlns:dc="http://purl.org/dc/elements/1.1/">
  <defs
     id="defs825">
    <pattern
       id="EMFhbasepattern"
       patternUnits="userSpaceOnUse"
       width="6"
       height="6"
       x="0"
       y="0" />
    <pattern
       id="EMFhbasepattern-9"
       patternUnits="userSpaceOnUse"
       width="6"
       height="6"
       x="0"
       y="0" />
    <pattern
       id="EMFhbasepattern-0"
       patternUnits="userSpaceOnUse"
       width="6"
       height="6"
       x="0"
       y="0" />
    <pattern
       id="EMFhbasepattern-7"
       patternUnits="userSpaceOnUse"
       width="6"
       height="6"
       x="0"
       y="0" />
    <pattern
       id="EMFhbasepattern-2"
       patternUnits="userSpaceOnUse"
       width="6"
       height="6"
       x="0"
       y="0" />
    <pattern
       id="EMFhbasepattern-98"
       patternUnits="userSpaceOnUse"
       width="6"
       height="6"
       x="0"
       y="0" />
    <pattern
       id="EMFhbasepattern-6"
       patternUnits="userSpaceOnUse"
       width="6"
       height="6"
       x="0"
       y="0" />
    <pattern
       id="EMFhbasepattern-01"
       patternUnits="userSpaceOnUse"
       width="6"
       height="6"
       x="0"
       y="0" />
    <pattern
       id="EMFhbasepattern-07"
       patternUnits="userSpaceOnUse"
       width="6"
       height="6"
       x="0"
       y="0" />
    <pattern
       id="EMFhbasepattern-8"
       patternUnits="userSpaceOnUse"
       width="6"
       height="6"
       x="0"
       y="0" />
    <pattern
       id="EMFhbasepattern-4"
       patternUnits="userSpaceOnUse"
       width="6"
       height="6"
       x="0"
       y="0" />
    <pattern
       id="EMFhbasepattern-40"
       patternUnits="userSpaceOnUse"
       width="6"
       height="6"
       x="0"
       y="0" />
    <pattern
       id="EMFhbasepattern-08"
       patternUnits="userSpaceOnUse"
       width="6"
       height="6"
       x="0"
       y="0" />
    <pattern
       id="EMFhbasepattern-04"
       patternUnits="userSpaceOnUse"
       width="6"
       height="6"
       x="0"
       y="0" />
    <pattern
       id="EMFhbasepattern-014"
       patternUnits="userSpaceOnUse"
       width="6"
       height="6"
       x="0"
       y="0" />
    <pattern
       id="EMFhbasepattern-27"
       patternUnits="userSpaceOnUse"
       width="6"
       height="6"
       x="0"
       y="0" />
    <pattern
       id="EMFhbasepattern-09"
       patternUnits="userSpaceOnUse"
       width="6"
       height="6"
       x="0"
       y="0" />
    <pattern
       id="EMFhbasepattern-5"
       patternUnits="userSpaceOnUse"
       width="6"
       height="6"
       x="0"
       y="0" />
    <pattern
       id="EMFhbasepattern-018"
       patternUnits="userSpaceOnUse"
       width="6"
       height="6"
       x="0"
       y="0" />
  </defs>
  <sodipodi:namedview
     id="base"
     pagecolor="#ffffff"
     bordercolor="#666666"
     borderopacity="1.0"
     inkscape:pageopacity="0.0"
     inkscape:pageshadow="2"
     inkscape:zoom="4.5878906"
     inkscape:cx="-13.513836"
     inkscape:cy="48.279268"
     inkscape:document-units="pt"
     inkscape:current-layer="layer1"
     showgrid="false"
     units="pt"
     inkscape:window-width="1920"
     inkscape:window-height="1001"
     inkscape:window-x="-9"
     inkscape:window-y="41"
     inkscape:window-maximized="1"
     inkscape:pagecheckerboard="true"
     inkscape:showpageshadow="false"
     inkscape:object-paths="true"
     inkscape:snap-intersection-paths="true"
     inkscape:snap-smooth-nodes="true"
     inkscape:snap-midpoints="true"
     showguides="true"
     inkscape:snap-bbox="true"
     inkscape:bbox-nodes="true"
     inkscape:snap-nodes="false"
     inkscape:snap-global="true">
    <inkscape:grid
       type="xygrid"
       id="grid1378" />
    <sodipodi:guide
       position="0.97013831,21.607643"
       orientation="78.000048,0"
       id="guide1380"
       inkscape:locked="false" />
    <sodipodi:guide
       position="0.97013831,0.97013129"
       orientation="0,78.000005"
       id="guide1382"
       inkscape:locked="false" />
    <sodipodi:guide
       position="21.607639,0.97013129"
       orientation="-78.000048,0"
       id="guide1384"
       inkscape:locked="false" />
    <sodipodi:guide
       position="21.607639,21.607643"
       orientation="0,-78.000005"
       id="guide1386"
       inkscape:locked="false" />
  </sodipodi:namedview>
  <metadata
     id="metadata828">
    <rdf:RDF>
      <cc:Work
         rdf:about="">
        <dc:format>image/svg+xml</dc:format>
        <dc:type
           rdf:resource="http://purl.org/dc/dcmitype/StillImage" />
      </cc:Work>
    </rdf:RDF>
  </metadata>
  <g
     inkscape:label="Icon"
     inkscape:groupmode="layer"
     id="layer1"
     transform="translate(0,-274.42223)">
    <g
       id="g467921"
       style="display:inline;stroke-width:0.794884"
       transform="matrix(1.2580452,0,0,1.2580452,0.63858068,-38.903704)">
      <path
         style="color:#000000;fill:#734845;stroke-width:0.794884;stroke-linecap:round;stroke-linejoin:round;-inkscape-stroke:none"
         d="m 14.085938,260.41211 a 0.26460996,0.26460996 0 0 0 -0.236329,0.22461 l -0.353515,2.38281 a 0.26460996,0.26460996 0 0 0 0.01563,0.13281 l 1.058594,2.77735 a 0.26460996,0.26460996 0 0 0 0.246093,0.16992 H 15.875 a 0.26460996,0.26460996 0 0 0 0.25,-0.34961 l -1.763672,-5.16016 a 0.26460996,0.26460996 0 0 0 -0.27539,-0.17773 z"
         id="path135129" />
      <path
         style="color:#000000;fill:#3a4d5c;fill-opacity:1;stroke-width:0.794884;stroke-linecap:round;stroke-linejoin:round;-inkscape-stroke:none"
         d="m 11.90625,255.25195 a 0.26460996,0.26460996 0 0 0 -0.255859,0.20117 l -0.265625,1.0586 a 0.26460996,0.26460996 0 0 0 0.257812,0.32812 h 1.585938 a 0.26460996,0.26460996 0 0 0 0.257812,-0.32812 l -0.265625,-1.0586 a 0.26460996,0.26460996 0 0 0 -0.255859,-0.20117 z"
         id="path104225" />
      <path
         style="color:#000000;fill:#3a4d5c;fill-opacity:1;stroke-width:0.794884;stroke-linecap:round;stroke-linejoin:round;-inkscape-stroke:none"
         d="m 11.376953,256.31055 c -0.435245,0 -0.792972,0.35772 -0.792969,0.79297 v 0.52929 a 0.26460996,0.26460996 0 0 0 0.263672,0.26563 h 3.175782 a 0.26460996,0.26460996 0 0 0 0.263671,-0.26563 v -0.52929 c 3e-6,-0.43525 -0.357723,-0.79297 -0.792968,-0.79297 z"
         id="path104417" />
      <path
         style="color:#000000;fill:#ececec;stroke-width:0.794884;stroke-linecap:round;stroke-linejoin:round;-inkscape-stroke:none"
         d="m 4.8007812,255.11914 a 0.26460996,0.26460996 0 0 0 -0.265625,0.26563 v 2.24804 a 0.26460996,0.26460996 0 0 0 0.265625,0.26563 h 2.0410157 a 0.26460996,0.26460996 0 0 0 0.2636718,-0.26563 v -2.24804 a 0.26460996,0.26460996 0 0 0 -0.2636718,-0.26563 z"
         id="path103824" />
      <path
         style="color:#000000;fill:#734845;stroke-width:0.794884;stroke-linecap:round;stroke-linejoin:round;-inkscape-stroke:none"
         d="m 2.8457031,260.41211 a 0.26460996,0.26460996 0 0 0 -0.2734375,0.17773 L 0.80859375,265.75 a 0.26460996,0.26460996 0 0 0 0.24999995,0.34961 h 1.0585938 a 0.26460996,0.26460996 0 0 0 0.2460938,-0.16992 l 1.0585937,-2.77735 a 0.26460996,0.26460996 0 0 0 0.013672,-0.13281 l -0.3515625,-2.38281 a 0.26460996,0.26460996 0 0 0 -0.2382814,-0.22461 z"
         id="path134745" />
      <path
         id="path138025"
         style="color:#000000;fill:#603c39;fill-opacity:1;stroke-width:0.794884;stroke-linecap:round;stroke-linejoin:round;-inkscape-stroke:none"
         d="m 3.0840498,260.63684 c -0.01792,-0.12098 -0.1164133,-0.21392 -0.2382287,-0.22479 -0.1211437,-0.0106 -0.2339176,0.0627 -0.2733682,0.17776 l -0.3627686,1.06195 0.5426026,3.25717 0.6697266,-1.75648 c -0.039841,-0.83679 -0.2151471,-1.68281 -0.3379637,-2.51561 z"
         sodipodi:nodetypes="ccccccc" />
      <path
         style="color:#000000;fill:#fed883;stroke-width:0.794884;stroke-linecap:round;stroke-linejoin:round;-inkscape-stroke:none"
         d="m 6.8789062,260.2793 c -0.3621654,0 -0.6621093,0.29993 -0.6621093,0.66211 v 0.52929 c 0,0.36218 0.2999278,0.66016 0.6621093,0.66016 h 3.1757818 c 0.362181,0 0.660156,-0.29798 0.660156,-0.66016 v -0.52929 c 0,-0.36218 -0.297983,-0.66211 -0.660156,-0.66211 z"
         id="path135321" />
      <path
         style="color:#000000;fill:#3a4d5c;fill-opacity:1;stroke-width:0.794884;stroke-linecap:round;stroke-linejoin:round;-inkscape-stroke:none"
         d="m 2.1953125,256.12305 c -0.4868105,0 -0.8886662,0.40186 -0.8886719,0.88867 v 0.62109 a 0.26460996,0.26460996 0 0 0 0.265625,0.26563 h 1.8671875 a 0.26460996,0.26460996 0 0 0 0.265625,-0.26563 v -0.62109 c -5.7e-6,-0.48681 -0.4018614,-0.88867 -0.8886718,-0.88867 z"
         id="path32210" />
      <path
         style="color:#000000;fill:#3a4d5c;fill-opacity:1;stroke-width:0.794884;stroke-linecap:round;stroke-linejoin:round;-inkscape-stroke:none"
         d="m 3.7988281,250.93359 a 0.26461046,0.26461046 0 0 0 -0.2714843,0.0625 l -0.5507813,0.55078 a 0.26461046,0.26461046 0 0 0 -0.0625,0.27149 l 0.2753906,0.82422 a 0.26461046,0.26461046 0 0 0 0.0625,0.10351 l 0.5507813,0.55078 a 0.26461046,0.26461046 0 0 0 0.375,0 l 1.0996093,-1.0996 a 0.26461046,0.26461046 0 0 0 0,-0.375 l -0.5507812,-0.55079 a 0.26461046,0.26461046 0 0 0 -0.1035156,-0.0625 z"
         id="path31602" />
      <path
         id="path140392"
         style="color:#000000;fill:#603c39;fill-opacity:1;stroke-width:0.794884;stroke-linecap:round;stroke-linejoin:round;-inkscape-stroke:none"
         d="m 14.085962,260.41205 c -0.121016,0.0118 -0.218435,0.1045 -0.236161,0.22479 -0.05734,0.82896 -0.360862,1.70028 -0.337967,2.51561 l 0.66921,1.75596 0.54312,-3.25665 -0.362769,-1.06195 c -0.03963,-0.11584 -0.153557,-0.18936 -0.275436,-0.17776 z"
         sodipodi:nodetypes="scccccss" />
      <path
         id="path106331"
         style="color:#000000;fill:#143441;fill-opacity:1;stroke-width:0.794884;stroke-linecap:round;stroke-linejoin:round;-inkscape-stroke:none"
         d="m 11.650452,255.45317 -0.214974,0.85732 h 2.000395 l -0.214974,-0.85732 z"
         sodipodi:nodetypes="ccccc" />
      <path
         style="color:#000000;fill:#a7e3fa;stroke-width:0.794884;stroke-linecap:round;stroke-linejoin:round;-inkscape-stroke:none"
         d="m 8.9960938,249.96094 c -0.4352373,0 -0.7949219,0.35773 -0.7949219,0.79297 v 4.23437 c 0,0.43524 0.3596777,0.79297 0.7949219,0.79297 H 15.875 c 0.435244,0 0.792969,-0.35773 0.792969,-0.79297 v -4.23437 c 0,-0.43524 -0.357732,-0.79297 -0.792969,-0.79297 z"
         id="path104029" />
      <path
         style="color:#000000;fill:#3a4d5c;fill-opacity:1;stroke-width:0.794884;stroke-linecap:round;stroke-linejoin:round;-inkscape-stroke:none"
         d="m 1.3222656,252.81445 c -0.4352436,0 -0.79297146,0.35773 -0.79296873,0.79297 5.5e-6,0.43524 0.35773081,0.79492 0.79296873,0.79492 0.435238,0 0.7949164,-0.35968 0.7949219,-0.79492 2.7e-6,-0.43524 -0.3596782,-0.79297 -0.7949219,-0.79297 z"
         id="path31908" />
      <path
         id="path99975"
         style="color:#000000;fill:#143441;fill-opacity:1;stroke-width:0.794884;stroke-linecap:round;stroke-linejoin:round;-inkscape-stroke:none"
         d="m 2.1952148,256.1229 c -0.3800853,0 -0.7078588,0.24535 -0.833541,0.58446 0.09522,-0.0353 0.2018962,-0.0255 0.3043743,-0.0553 l 0.9921925,-0.28859 c 0.4674394,-0.13596 0.8554907,0.50887 0.7033138,0.97129 l -0.1855209,0.56373 h 0.2635498 c 0.1469249,5.6e-4 0.2661732,-0.11869 0.2656169,-0.26561 v -0.62115 c -5.7e-6,-0.48681 -0.4020242,-0.88884 -0.8888347,-0.88884 z"
         sodipodi:nodetypes="ccssscccccc" />
      <path
         id="path114587"
         style="color:#000000;fill:#cccccc;fill-opacity:1;stroke-width:3.00429;stroke-linecap:round;stroke-linejoin:round;-inkscape-stroke:none"
         d="m 18.144531,-94.289062 c -0.555317,-0.0021 -1.006023,0.448589 -1.003906,1.003906 v 2 c -0.0021,-0.555317 0.448589,-1.006023 1.003906,-1.003906 l 5.723323,-0.77909 c 1.190864,0 1.688796,0.887477 1.688796,2.078341 l -0.701181,6.200749 c 0.0021,0.552264 -0.443831,1.001698 -0.996094,1.003906 h 2 c 0.552263,-0.0022 0.9982,-0.451642 0.996094,-1.003906 v -8.496094 c -0.01426,-0.693315 -0.57969,-1.01063 -0.996269,-1.004162 -2.571556,-3.5e-5 -5.143113,1.41e-4 -7.714669,2.56e-4 z"
         transform="matrix(0.26458334,0,0,0.26458334,0,280.06666)"
         sodipodi:nodetypes="ccccccccccccc" />
      <path
         id="path134553"
         style="color:#000000;fill:#9a605c;stroke-width:3.00429;stroke-linecap:round;stroke-linejoin:round;-inkscape-stroke:none"
         d="m 10.001953,-78.787109 a 1.0001006,1.0001006 0 0 0 -0.9882811,1.166015 l 4.0000001,23.998047 a 1.0001006,1.0001006 0 0 0 0.990234,0.833985 h 3.992188 a 1.0001006,1.0001006 0 0 0 0.990234,-1.158204 l -4.001953,-24.005859 a 1.0001006,1.0001006 0 0 0 -0.980469,-0.833984 z m 39.996094,0 a 1.0001006,1.0001006 0 0 0 -0.982422,0.833984 l -4,24.005859 a 1.0001006,1.0001006 0 0 0 0.980469,1.158204 h 4.001953 a 1.0001006,1.0001006 0 0 0 0.988281,-0.833985 l 4.001953,-23.998047 a 1.0001006,1.0001006 0 0 0 -0.990234,-1.166015 z"
         transform="matrix(0.26458334,0,0,0.26458334,0,280.06666)" />
      <path
         id="path142293"
         style="color:#000000;fill:#603c39;fill-opacity:1;stroke-width:3.00429;stroke-linecap:round;stroke-linejoin:round;-inkscape-stroke:none"
         d="m 10.001953,-78.787109 a 1.0001006,1.0001006 0 0 0 -0.9882811,1.166015 l 0.4726562,2.833985 h 6.0253909 l -0.527344,-3.166016 a 1.0001006,1.0001006 0 0 0 -0.980469,-0.833984 z m 39.996094,0 a 1.0001006,1.0001006 0 0 0 -0.982422,0.833984 l -0.527344,3.166016 h 6.027344 l 0.472656,-2.833985 a 1.0001006,1.0001006 0 0 0 -0.990234,-1.166015 z"
         transform="matrix(0.26458334,0,0,0.26458334,0,280.06666)" />
      <path
         style="color:#000000;fill:#734845;stroke-width:0.794884;stroke-linecap:round;stroke-linejoin:round;-inkscape-stroke:none"
         d="m 1.0585937,257.36914 c -0.43523254,0 -0.79492382,0.35774 -0.79492182,0.79297 v 0.79492 c -2e-6,0.43523 0.35968928,0.79297 0.79492182,0.79297 H 15.875 c 0.435233,0 0.792975,-0.35774 0.792969,-0.79297 v -0.79492 c -3e-6,-0.43523 -0.357736,-0.79297 -0.792969,-0.79297 z"
         id="path134361" />
      <path
         id="path98291"
         style="color:#000000;fill:#143441;fill-opacity:1;stroke-width:0.794884;stroke-linecap:round;stroke-linejoin:round;-inkscape-stroke:none"
         d="m 3.7165692,250.9196 c -0.070736,-8.1e-4 -0.1388509,0.0267 -0.1891358,0.0765 l -0.017571,0.0176 0.5839436,0.19534 c 0.038809,0.0126 0.074181,0.034 0.1033529,0.0625 l 0.5508707,0.55087 c 0.1036267,0.10339 0.1036267,0.27126 0,0.37465 l -1.0221598,1.02268 0.076998,0.077 c 0.1033867,0.10363 0.2712673,0.10363 0.374654,0 l 1.0996745,-1.09968 c 0.1036267,-0.10339 0.1036267,-0.27126 0,-0.37465 l -0.5508707,-0.55087 c -0.029172,-0.0285 -0.064544,-0.0499 -0.1033529,-0.0625 l -0.824239,-0.27544 z"
         sodipodi:nodetypes="cccccccccccccccc" />
      <path
         id="path101659"
         style="color:#000000;fill:#143441;fill-opacity:1;stroke-width:0.794884;stroke-linecap:round;stroke-linejoin:round;-inkscape-stroke:none"
         d="m 0.56378971,253.37785 c 0.0727006,-0.0222 0.1498436,-0.0341 0.2294435,-0.0341 0.43524359,0 0.79478609,0.35748 0.79478349,0.79272 -1.1e-6,0.0801 -0.012535,0.15777 -0.03514,0.23099 0.324566,-0.10019 0.5643021,-0.40504 0.5643066,-0.76016 2.6e-6,-0.43524 -0.3595399,-0.79271 -0.7947835,-0.79271 -0.3779246,-0.004 -0.69003571,0.29931 -0.75861009,0.56326 z"
         sodipodi:nodetypes="csscscc" />
      <path
         id="path104605"
         style="color:#000000;fill:#87d1ee;fill-opacity:1;stroke-width:0.794884;stroke-linecap:round;stroke-linejoin:round;-inkscape-stroke:none"
         d="m 8.9963504,249.961 c -0.3556723,0 -0.66097,0.23893 -0.7606771,0.56379 2.3357627,-0.0882 5.0381637,-0.26797 7.3987487,-0.26797 0.435237,0 0.627809,0.59085 0.627809,1.02609 0,1.35557 -0.157791,4.46381 -0.157791,4.46381 0.154164,-0.0364 0.567697,-0.29072 0.563273,-0.75861 v -4.23437 c 0,-0.43524 -0.35748,-0.79272 -0.792717,-0.79272 z"
         sodipodi:nodetypes="cccsccssc" />
      <path
         id="path135522"
         style="color:#000000;fill:#603c39;fill-opacity:1;stroke-width:0.794884;stroke-linecap:round;stroke-linejoin:round;-inkscape-stroke:none"
         d="m 1.05885,257.36934 c -0.35568198,0 -0.66098208,0.23891 -0.76067708,0.56379 0.073375,-0.0226 0.1512083,-0.0346 0.2315104,-0.0346 H 15.345834 c 0.435233,0 0.792713,0.35749 0.792716,0.79272 v 0.79478 c 2e-6,0.0796 -0.01191,0.15678 -0.03411,0.22945 0.324638,-0.0994 0.563278,-0.40311 0.563273,-0.75861 v -0.79479 c -3e-6,-0.43523 -0.357483,-0.79271 -0.792716,-0.79271 z" />
      <path
         id="path144835"
         style="color:#000000;fill:#e5c478;fill-opacity:1;stroke-width:0.794884;stroke-linecap:round;stroke-linejoin:round;-inkscape-stroke:none"
         d="m 6.8786501,260.27924 c -0.3464607,-0.0149 -0.6094798,0.28844 -0.6500895,0.52913 l 3.5237041,-0.20613 c 0.3621733,0 0.6186813,0.40286 0.6186813,0.76504 l -0.185521,0.75212 c 0.322886,-0.0694 0.529169,-0.29362 0.529169,-0.64854 v -0.52968 c 0,-0.36218 -0.297735,-0.66197 -0.659908,-0.66197 z"
         sodipodi:nodetypes="cccccsscc" />
      <path
         id="rect27065"
         style="color:#000000;display:inline;fill:#000000;stroke-width:0.794884;stroke-linecap:round;stroke-linejoin:round;-inkscape-stroke:none"
         d="m 8.9963503,249.961 c -0.4352372,0 -0.7953002,0.35748 -0.7953002,0.79272 v 4.23437 c 0,0.43524 0.3600561,0.79323 0.7953002,0.79323 h 2.5719357 l -0.132808,0.52917 h -0.05839 c -0.435245,0 -0.793237,0.35798 -0.793234,0.79323 v 0.26562 H 7.1055097 v -1.19166 h 0.3028238 c 0.2223201,0 0.3963588,0.17611 0.3963583,0.39842 5.821e-4,0.14613 0.1194911,0.26413 0.2656168,0.26355 0.1453192,-5.5e-4 0.2629834,-0.11823 0.2635499,-0.26355 1e-6,-0.5083 -0.4172178,-0.92759 -0.925525,-0.92759 H 7.1055097 v -0.26355 c 5.556e-4,-0.14612 -0.1174303,-0.26503 -0.2635499,-0.26561 H 4.8007406 c -0.1469276,-5.6e-4 -0.2661769,0.11868 -0.2656168,0.26561 v 1.98438 H 3.7052002 v -0.3576 c -5.5e-6,-0.48681 -0.402024,-0.88884 -0.8888346,-0.88884 H 2.6752889 l -0.8578287,-1.89601 c 0.3352655,-0.24005 0.3986385,-0.65331 0.2098063,-0.98288 l 1.0221599,-1.02061 0.1400432,0.41909 c 0.012594,0.0388 0.033996,0.0742 0.062528,0.10336 l 0.5508707,0.55087 c 0.1033867,0.10363 0.2712672,0.10363 0.374654,0 l 1.0996745,-1.09968 c 0.1036301,-0.10338 0.1036301,-0.27127 0,-0.37465 l -0.5508707,-0.55087 c -0.029169,-0.0285 -0.064542,-0.0499 -0.1033529,-0.0625 l -0.824239,-0.27544 c -0.094976,-0.0323 -0.2000285,-0.008 -0.2713014,0.0625 l -0.088367,0.0884 -0.2537315,-0.25218 c -0.1215416,-0.11184 -0.2765401,-0.0842 -0.372587,-5.3e-4 -0.1039903,0.10344 -0.1039903,0.27173 0,0.37517 l 0.2516642,0.25218 -0.08785,0.0879 -0.00103,0.002 -1.3332521,1.33377 c -0.5345217,-0.20256 -1.09639615,0.18231 -1.11311192,0.72499 5.48e-6,0.43337 0.3548479,0.79223 0.78754882,0.7953 l 0.7813477,1.726 c -0.4418406,0.0493 -0.7911609,0.42925 -0.7911662,0.88315 v 0.3576 H 1.0588501 c -0.43523251,0 -0.79530229,0.35748 -0.79530029,0.79271 v 0.79479 c -2e-6,0.43523 0.36006778,0.79323 0.79530029,0.79323 h 1.3627076 l 0.1436605,0.86093 -1.75648202,5.13922 c -0.0579012,0.17132 0.0692764,0.34895 0.25011392,0.34933 h 1.0583334 c 0.1092242,-4.7e-4 0.2069343,-0.068 0.2459798,-0.17001 l 0.7575766,-1.98644 0.3224609,1.9358 c 0.021524,0.12778 0.1324176,0.22118 0.2619994,0.22065 h 1.0562665 c 0.163118,4.5e-4 0.287787,-0.14537 0.2619994,-0.30644 l -1.0071735,-6.04304 h 8.9012654 l -1.007174,6.04304 c -0.02563,0.16004 0.09734,0.3053 0.259416,0.30644 h 1.05885 c 0.129387,2.7e-4 0.239992,-0.0931 0.261483,-0.22065 l 0.322978,-1.93632 0.757059,1.98696 c 0.03905,0.10201 0.136756,0.16954 0.24598,0.17001 H 15.875 c 0.180838,-3.9e-4 0.308015,-0.17801 0.250114,-0.34933 l -1.756482,-5.13922 0.143661,-0.86093 H 15.875 c 0.435233,0 0.792723,-0.358 0.792717,-0.79323 v -0.79479 c -3e-6,-0.43523 -0.357484,-0.79271 -0.792717,-0.79271 h -1.588016 v -0.26562 c 3e-6,-0.43525 -0.357472,-0.79323 -0.792717,-0.79323 h -0.05839 l -0.132809,-0.52917 H 15.875 c 0.435244,0 0.792717,-0.35799 0.792717,-0.79323 v -4.23437 c 0,-0.43524 -0.35748,-0.79272 -0.792717,-0.79272 z m 0,0.52917 H 15.875 c 0.14926,0 0.26355,0.11429 0.26355,0.26355 v 3.43958 H 8.7302168 v -3.43958 c 0,-0.14926 0.1168736,-0.26355 0.2661335,-0.26355 z m 3.4390667,0.83819 c -0.07042,1e-5 -0.137933,0.0281 -0.187585,0.078 l -0.747758,0.74776 c -0.103991,0.10344 -0.103991,0.27173 0,0.37517 0.103438,0.10399 0.271731,0.10399 0.37517,0 l 0.747758,-0.74827 c 0.103646,-0.10338 0.103646,-0.27128 0,-0.37466 -0.04965,-0.0499 -0.117164,-0.078 -0.187585,-0.078 z m -8.6480512,0.15813 0.6092653,0.20516 0.3183266,0.31832 -0.7245036,0.72658 -0.3203937,-0.3204 -0.2030884,-0.60926 c 0.1070608,-0.10721 0.2132079,-0.21357 0.3203938,-0.3204 z m 9.3963262,0.59015 c -0.07035,-1.3e-4 -0.137848,0.0278 -0.187586,0.0775 l -0.748274,0.74828 c -0.103991,0.10343 -0.103991,0.27173 0,0.37517 0.103438,0.10399 0.271731,0.10399 0.37517,0 l 0.748275,-0.74828 c 0.103991,-0.10344 0.103991,-0.27173 0,-0.37517 -0.04974,-0.0497 -0.117238,-0.0776 -0.187585,-0.0775 z m -6.980453,0.57361 c -0.1222555,0.0807 -0.1556171,0.24546 -0.074414,0.36741 0.1097126,0.16457 0.1142508,0.23815 0.107487,0.28888 -0.00676,0.0507 -0.041341,0.11162 -0.107487,0.21084 -0.066146,0.0992 -0.1628264,0.23832 -0.1891356,0.43563 -0.02631,0.19732 0.034265,0.42036 0.1891356,0.65267 0.080912,0.12208 0.2456024,0.1552 0.3674195,0.0739 0.1217562,-0.0809 0.1548471,-0.24519 0.073897,-0.3669 -0.1097124,-0.16457 -0.1142505,-0.24021 -0.107487,-0.29094 0.00676,-0.0507 0.041341,-0.11007 0.107487,-0.20929 0.066146,-0.0992 0.1654104,-0.23831 0.1917197,-0.43563 0.026308,-0.19733 -0.036849,-0.41985 -0.1917197,-0.65216 -0.084196,-0.13588 -0.2723055,-0.14096 -0.3669027,-0.0744 z m -0.7606771,0.42736 c -0.133263,-0.001 -0.2466296,0.0969 -0.2645834,0.22893 -0.00676,0.0507 -0.039791,0.11162 -0.1059365,0.21084 -0.066146,0.0992 -0.1648936,0.23832 -0.1912027,0.43563 -0.02631,0.19732 0.036332,0.42036 0.1912027,0.65267 0.080817,0.1208 0.2439424,0.15379 0.3653523,0.0739 0.1219348,-0.0807 0.1552636,-0.24505 0.074414,-0.3669 -0.1097118,-0.16457 -0.1142505,-0.24073 -0.1074869,-0.29146 0.00676,-0.0507 0.041341,-0.10955 0.1074869,-0.20877 0.066146,-0.0992 0.1648939,-0.23831 0.191203,-0.43563 0.018915,-0.14501 -0.083385,-0.27786 -0.22841,-0.29663 -0.010615,-0.002 -0.021315,-0.002 -0.032039,-0.003 z m -4.120162,0.26613 c 0.1643123,0.008 0.2569386,0.11395 0.265616,0.26356 0.00832,0.14753 -0.1183238,0.24928 -0.265616,0.26561 -0.1492575,0 -0.2635479,-0.11636 -0.2635498,-0.26562 -9e-7,-0.14926 0.1142901,-0.26355 0.2635498,-0.26355 z m 7.4078169,1.37873 H 16.13855 v 0.26562 c 0,0.14926 -0.114293,0.26406 -0.26355,0.26406 H 11.911935 8.9963503 c -0.1492565,0 -0.2661338,-0.1148 -0.2661335,-0.26406 z m -3.6659263,0.92604 H 6.576343 v 1.72083 H 5.0642905 Z m 7.0481485,0.13281 h 0.644922 l 0.132809,0.52917 h -0.910022 z m -9.2960734,0.87126 c 0.2008296,0 0.3596656,0.15833 0.3596679,0.35916 v 0.3576 H 1.8360637 v -0.3576 c 2.3e-6,-0.19456 0.1486641,-0.34967 0.3405477,-0.35916 z m 8.5607184,0.18707 h 2.117183 c 0.149258,0 0.263551,0.11481 0.26355,0.26407 v 0.26562 h -2.644283 v -0.26562 c -10e-7,-0.14926 0.114292,-0.26407 0.26355,-0.26407 z M 1.0588501,257.8985 H 15.875 c 0.149251,0 0.263549,0.1143 0.26355,0.26355 v 0.79479 c 2e-6,0.14925 -0.114303,0.26406 -0.26355,0.26406 H 1.0588501 c -0.14924888,0 -0.26613431,-0.11481 -0.2661336,-0.26406 v -0.79479 c -7.1e-7,-0.14925 0.11688472,-0.26355 0.2661336,-0.26355 z m 1.8980754,1.85157 h 0.5234823 l 0.9710003,5.82032 H 3.9279257 Z m 10.4960005,0 h 0.523482 l -0.970483,5.82032 h -0.523483 z m -6.5742759,0.52917 c -0.3621654,0 -0.6619751,0.29979 -0.6619751,0.66197 v 0.52969 c 0,0.36218 0.2997936,0.6599 0.6619751,0.6599 h 0.1498616 l -1.3389364,3.61322 c -0.050783,0.13699 0.019082,0.28922 0.1560629,0.34003 0.1375899,0.0522 0.2912996,-0.018 0.342098,-0.15606 l 1.4050823,-3.79719 h 0.6082316 v 3.17604 c 5.821e-4,0.14612 0.1194911,0.26412 0.2656168,0.26355 0.1453192,-5.6e-4 0.2629834,-0.11823 0.2635499,-0.26355 v -3.17604 h 0.6108155 l 1.4050817,3.79719 c 0.05082,0.13698 0.203039,0.20684 0.340031,0.15606 0.13698,-0.0508 0.206846,-0.20304 0.156063,-0.34003 L 9.9053388,262.1308 h 0.1493452 c 0.362181,0 0.659908,-0.29772 0.659908,-0.6599 v -0.52969 c 0,-0.36218 -0.297735,-0.66197 -0.659908,-0.66197 z m 0,0.52916 h 3.1760339 c 0.0762,0 0.130741,0.0566 0.130741,0.13281 v 0.52969 c 0,0.0762 -0.05455,0.13074 -0.130741,0.13074 H 6.8786501 c -0.076194,0 -0.1328084,-0.0546 -0.1328084,-0.13074 v -0.52969 c 0,-0.0762 0.056599,-0.13281 0.1328084,-0.13281 z m -4.9449193,4.76199 H 1.4298869 l 1.3182659,-3.86023 0.2020549,1.20974 c -0.3472234,0.87963 -0.6791924,1.76661 -1.0164769,2.65049 z m 12.2514502,-3.8597 1.318783,3.85971 h -0.505913 c -0.339899,-0.88065 -0.668247,-1.77751 -1.014407,-2.651 z"
         sodipodi:nodetypes="ssssccsscccscscscccccccsscccccccccccccccccccccccccscssssccccccccccccccccccccccccsccscssccssssssssccsscccccccccccccccccccccccccscscccscscccccscccsccccccccscccsscssccccccccccccsccsccccsccscssccsssssccccccccccsssscccccccscccccccsssssssssssssscccccccccc" />
    </g>
  </g>
</svg>
